<svg xmlns="http://www.w3.org/2000/svg" viewBox="0 0 860 340" font-family="'Segoe UI', Arial, sans-serif">
    <defs>
        <linearGradient id="bg4" x1="0" y1="0" x2="0" y2="1">
            <stop offset="0%" stop-color="#f8f9fa"/>
            <stop offset="100%" stop-color="#e9ecef"/>
        </linearGradient>
        <filter id="s4" x="-1%" y="-2%" width="102%" height="108%">
            <feDropShadow dx="0" dy="1" stdDeviation="2" flood-color="#00000010"/>
        </filter>
    </defs>

    <rect width="860" height="340" rx="10" fill="url(#bg4)" stroke="#dee2e6" stroke-width="1"/>

    <text x="430" y="28" text-anchor="middle" font-size="15" font-weight="700" fill="#1e293b">PLAID Impact at Scale: 140M Passages (MS MARCO)</text>

    <!-- Left column: Vanilla ColBERTv2 -->
    <rect x="30" y="48" width="385" height="275" rx="8" fill="#fff1f2" stroke="#fecdd3" stroke-width="1.5" filter="url(#s4)"/>
    <text x="222" y="72" text-anchor="middle" font-size="14" font-weight="700" fill="#9f1239">Vanilla ColBERTv2</text>

    <!-- In-memory data -->
    <rect x="50" y="88" width="345" height="48" rx="6" fill="#ffffff" stroke="#fda4af" stroke-width="1"/>
    <text x="62" y="107" font-size="11" font-weight="600" fill="#475569">In-Memory Working Set</text>
    <rect x="62" y="114" width="320" height="14" rx="3" fill="#fecdd3"/>
    <rect x="62" y="114" width="320" height="14" rx="3" fill="#fb7185" opacity="0.8"/>
    <text x="222" y="124" text-anchor="middle" font-size="9" font-weight="700" fill="#ffffff">Full compressed tokens: 140M × 2,000 B = 280 GB</text>

    <!-- Latency bars -->
    <text x="62" y="160" font-size="11" font-weight="600" fill="#475569">Query Latency</text>
    <rect x="62" y="168" width="320" height="22" rx="4" fill="#fda4af"/>
    <text x="222" y="183" text-anchor="middle" font-size="10" font-weight="700" fill="#881337">GPU: ~350 ms</text>
    <rect x="62" y="196" width="320" height="22" rx="4" fill="#fb7185"/>
    <text x="222" y="211" text-anchor="middle" font-size="10" font-weight="700" fill="#ffffff">CPU: ~14,000 ms (14 sec!)</text>

    <!-- Per-query data touched -->
    <text x="62" y="242" font-size="11" font-weight="600" fill="#475569">Data Decompressed Per Query</text>
    <rect x="62" y="250" width="320" height="22" rx="4" fill="#fecdd3"/>
    <text x="222" y="265" text-anchor="middle" font-size="10" font-weight="700" fill="#881337">~50,000 docs × 2,000 B ≈ 100 MB</text>

    <!-- Cost indicator -->
    <rect x="62" y="284" width="320" height="26" rx="4" fill="#9f1239"/>
    <text x="222" y="301" text-anchor="middle" font-size="11" font-weight="700" fill="#ffffff">Cost at 1B docs: $20,000–$80,000/month</text>

    <!-- Right column: PLAID -->
    <rect x="445" y="48" width="385" height="275" rx="8" fill="#f0fdf4" stroke="#bbf7d0" stroke-width="1.5" filter="url(#s4)"/>
    <text x="637" y="72" text-anchor="middle" font-size="14" font-weight="700" fill="#166534">PLAID ColBERTv2</text>

    <!-- In-memory data -->
    <rect x="465" y="88" width="345" height="48" rx="6" fill="#ffffff" stroke="#86efac" stroke-width="1"/>
    <text x="477" y="107" font-size="11" font-weight="600" fill="#475569">In-Memory Working Set</text>
    <rect x="477" y="114" width="320" height="14" rx="3" fill="#dcfce7"/>
    <rect x="477" y="114" width="32" height="14" rx="3" fill="#22c55e" opacity="0.8"/>
    <text x="530" y="124" font-size="9" font-weight="700" fill="#166534">Centroid IDs: 140M × 200 B = 28 GB (10×↓)</text>

    <!-- Latency bars -->
    <text x="477" y="160" font-size="11" font-weight="600" fill="#475569">Query Latency</text>
    <rect x="477" y="168" width="46" height="22" rx="4" fill="#86efac"/>
    <text x="555" y="183" font-size="10" font-weight="700" fill="#166534">GPU: ~50 ms (7× faster)</text>
    <rect x="477" y="196" width="7" height="22" rx="4" fill="#22c55e"/>
    <text x="555" y="211" font-size="10" font-weight="700" fill="#166534">CPU: ~310 ms (45× faster)</text>

    <!-- Per-query data touched -->
    <text x="477" y="242" font-size="11" font-weight="600" fill="#475569">Data Decompressed Per Query</text>
    <rect x="477" y="250" width="6" height="22" rx="3" fill="#bbf7d0"/>
    <text x="555" y="265" font-size="10" font-weight="700" fill="#166534">~1,000 docs × 2,000 B ≈ 2 MB (50×↓)</text>

    <!-- Cost indicator -->
    <rect x="477" y="284" width="320" height="26" rx="4" fill="#166534"/>
    <text x="637" y="301" text-anchor="middle" font-size="11" font-weight="700" fill="#ffffff">Cost at 1B docs: $750–$2,900/month</text>

    <!-- VS divider -->
    <circle cx="430" cy="185" r="18" fill="#ffffff" stroke="#e2e8f0" stroke-width="2"/>
    <text x="430" y="190" text-anchor="middle" font-size="12" font-weight="800" fill="#475569">vs</text>
</svg>